<svg id="Layer_1" data-name="Layer 1" xmlns="http://www.w3.org/2000/svg" viewBox="0 0 48 48"><defs><style>.cls-1{fill:#ffd600;}.cls-2{fill:#000001;}.cls-3{fill:#fff;stroke:#ff8f00;stroke-miterlimit:10;stroke-width:0.25px;}.cls-4{font-size:14px;fill:#ff8f00;font-family:TwCenMT-Bold, Tw Cen MT;font-weight:700;}.cls-5{letter-spacing:-0.05em;}</style></defs><title>oArtboard 1 copy 3</title><path class="cls-1" d="M6,42V6H42V42Z"/><path class="cls-2" d="M29.54,33c.69,1.12,1.44,2.2,3,2.2,1.33,0,2-.67,2-1.59,0-1.1-.73-1.49-2.2-2.13l-.81-.34c-2.33-1-3.88-2.23-3.88-4.84,0-2.41,1.85-4.25,4.73-4.25a4.77,4.77,0,0,1,4.59,2.57l-2.51,1.61a2.2,2.2,0,0,0-2.08-1.38,1.41,1.41,0,0,0-1.55,1.38c0,1,.6,1.36,2,1.95l.81.35c2.74,1.17,4.29,2.36,4.29,5,0,2.9-2.28,4.48-5.35,4.48A5.91,5.91,0,0,1,27,34.63ZM18,33a2.75,2.75,0,0,0,2.38,1.6c1.06,0,1.67-.42,1.67-2V22h3.33V33.1c0,3.37-1.95,4.9-4.8,4.9a5.86,5.86,0,0,1-5.2-3.37Z"/><path class="cls-1" d="M6,42V6H42V42Z"/><path class="cls-2" d="M29.54,33c.69,1.12,1.44,2.2,3,2.2,1.33,0,2-.67,2-1.59,0-1.1-.73-1.49-2.2-2.13l-.81-.34c-2.33-1-3.88-2.23-3.88-4.84,0-2.41,1.85-4.25,4.73-4.25a4.77,4.77,0,0,1,4.59,2.57l-2.51,1.61a2.2,2.2,0,0,0-2.08-1.38,1.41,1.41,0,0,0-1.55,1.38c0,1,.6,1.36,2,1.95l.81.35c2.74,1.17,4.29,2.36,4.29,5,0,2.9-2.28,4.48-5.35,4.48A5.91,5.91,0,0,1,27,34.63ZM18,33a2.75,2.75,0,0,0,2.38,1.6c1.06,0,1.67-.42,1.67-2V22h3.33V33.1c0,3.37-1.95,4.9-4.8,4.9a5.86,5.86,0,0,1-5.2-3.37Z"/><path class="cls-3" d="M6,42V6H42V42Z"/><text class="cls-4" transform="translate(13.44 39.9) scale(1.03 1)"><tspan class="cls-5">A</tspan><tspan x="8.93" y="0">WS</tspan></text></svg>